# xmcd
#
# Track frame offsets:
#  150
#  15069
#  29078
#  51987
#  67450
#  83028
#  98821
#  113866
#  134964
#  159938
#  178095
#  198829
#  217575
#  235373
#  256124
#  274424
#  288968
#  306259
#
# Disc length: 4396 seconds
#
# Revision: 0
# Processed by: cddbd v1.5.1PL2 Copyright (c) Steve Scherf et al.
# Submitted via: Collectorz.com_Music_Collector 6.10
#
DISCID=05112a12
DTITLE=Sharon O'Neill - The best of
DYEAR=2005
DGENRE=General Rock
TTITLE0=Words
TTITLE1=How Do You Talk To Boys
TTITLE2=Asian Paradise
TTITLE3=Baby Don't Fight
TTITLE4=Waiting For You
TTITLE5=Maybe
TTITLE6=For All The Tea In China
TTITLE7=Smash Palace
TTITLE8=Hold On Love
TTITLE9=Losing You
TTITLE10=Maxine
TTITLE11=Danger
TTITLE12=Power
TTITLE13=Physical Favours
TTITLE14=Danced In The Fire
TTITLE15=Water For The Flowers
TTITLE16=Satin Sheets
TTITLE17=Maxine (Live)
EXTD=
EXTT0=
EXTT1=
EXTT2=
EXTT3=
EXTT4=
EXTT5=
EXTT6=
EXTT7=
EXTT8=
EXTT9=
EXTT10=
EXTT11=
EXTT12=
EXTT13=
EXTT14=
EXTT15=
EXTT16=
EXTT17=
PLAYORDER=
